<mxfile host="app.diagrams.net" agent="Mozilla/5.0 (Windows NT 10.0; Win64; x64) AppleWebKit/537.36 (KHTML, like Gecko) Chrome/136.0.0.0 Safari/537.36" version="27.0.6">
  <diagram name="Страница — 1" id="pJxwWaSKNsiK9Uz07bFz">
    <mxGraphModel dx="1426" dy="823" grid="1" gridSize="10" guides="1" tooltips="1" connect="1" arrows="1" fold="1" page="1" pageScale="1" pageWidth="827" pageHeight="1169" math="0" shadow="0">
      <root>
        <mxCell id="0" />
        <mxCell id="1" parent="0" />
        <mxCell id="z3WSKayu3pLSzVkKCeYQ-3" value="" style="edgeStyle=orthogonalEdgeStyle;rounded=0;orthogonalLoop=1;jettySize=auto;html=1;" edge="1" parent="1" source="z3WSKayu3pLSzVkKCeYQ-1" target="z3WSKayu3pLSzVkKCeYQ-2">
          <mxGeometry relative="1" as="geometry" />
        </mxCell>
        <mxCell id="z3WSKayu3pLSzVkKCeYQ-5" value="" style="edgeStyle=orthogonalEdgeStyle;rounded=0;orthogonalLoop=1;jettySize=auto;html=1;" edge="1" parent="1" source="z3WSKayu3pLSzVkKCeYQ-1" target="z3WSKayu3pLSzVkKCeYQ-4">
          <mxGeometry relative="1" as="geometry" />
        </mxCell>
        <mxCell id="z3WSKayu3pLSzVkKCeYQ-14" value="" style="edgeStyle=orthogonalEdgeStyle;rounded=0;orthogonalLoop=1;jettySize=auto;html=1;" edge="1" parent="1" source="z3WSKayu3pLSzVkKCeYQ-1" target="z3WSKayu3pLSzVkKCeYQ-13">
          <mxGeometry relative="1" as="geometry" />
        </mxCell>
        <mxCell id="z3WSKayu3pLSzVkKCeYQ-1" value="Главная" style="rounded=0;whiteSpace=wrap;html=1;" vertex="1" parent="1">
          <mxGeometry x="340" y="400" width="120" height="60" as="geometry" />
        </mxCell>
        <mxCell id="z3WSKayu3pLSzVkKCeYQ-7" value="" style="edgeStyle=orthogonalEdgeStyle;rounded=0;orthogonalLoop=1;jettySize=auto;html=1;" edge="1" parent="1" source="z3WSKayu3pLSzVkKCeYQ-2" target="z3WSKayu3pLSzVkKCeYQ-6">
          <mxGeometry relative="1" as="geometry" />
        </mxCell>
        <mxCell id="z3WSKayu3pLSzVkKCeYQ-9" value="" style="edgeStyle=orthogonalEdgeStyle;rounded=0;orthogonalLoop=1;jettySize=auto;html=1;exitX=0;exitY=0.5;exitDx=0;exitDy=0;" edge="1" parent="1" source="z3WSKayu3pLSzVkKCeYQ-2" target="z3WSKayu3pLSzVkKCeYQ-8">
          <mxGeometry relative="1" as="geometry">
            <mxPoint x="220" y="320" as="sourcePoint" />
          </mxGeometry>
        </mxCell>
        <mxCell id="z3WSKayu3pLSzVkKCeYQ-11" value="" style="edgeStyle=orthogonalEdgeStyle;rounded=0;orthogonalLoop=1;jettySize=auto;html=1;" edge="1" parent="1" source="z3WSKayu3pLSzVkKCeYQ-2" target="z3WSKayu3pLSzVkKCeYQ-10">
          <mxGeometry relative="1" as="geometry" />
        </mxCell>
        <mxCell id="z3WSKayu3pLSzVkKCeYQ-2" value="Авторизация" style="rounded=0;whiteSpace=wrap;html=1;" vertex="1" parent="1">
          <mxGeometry x="240" y="300" width="120" height="60" as="geometry" />
        </mxCell>
        <mxCell id="z3WSKayu3pLSzVkKCeYQ-12" style="edgeStyle=orthogonalEdgeStyle;rounded=0;orthogonalLoop=1;jettySize=auto;html=1;entryX=0.5;entryY=1;entryDx=0;entryDy=0;" edge="1" parent="1" source="z3WSKayu3pLSzVkKCeYQ-4" target="z3WSKayu3pLSzVkKCeYQ-10">
          <mxGeometry relative="1" as="geometry" />
        </mxCell>
        <mxCell id="z3WSKayu3pLSzVkKCeYQ-4" value="Регистрация" style="rounded=0;whiteSpace=wrap;html=1;" vertex="1" parent="1">
          <mxGeometry x="430" y="300" width="120" height="60" as="geometry" />
        </mxCell>
        <mxCell id="z3WSKayu3pLSzVkKCeYQ-6" value="Админ панель" style="rounded=0;whiteSpace=wrap;html=1;" vertex="1" parent="1">
          <mxGeometry x="10" y="250" width="120" height="60" as="geometry" />
        </mxCell>
        <mxCell id="z3WSKayu3pLSzVkKCeYQ-8" value="Менеджер панель" style="rounded=0;whiteSpace=wrap;html=1;" vertex="1" parent="1">
          <mxGeometry x="10" y="350" width="120" height="60" as="geometry" />
        </mxCell>
        <mxCell id="z3WSKayu3pLSzVkKCeYQ-18" value="" style="edgeStyle=orthogonalEdgeStyle;rounded=0;orthogonalLoop=1;jettySize=auto;html=1;" edge="1" parent="1" source="z3WSKayu3pLSzVkKCeYQ-10" target="z3WSKayu3pLSzVkKCeYQ-17">
          <mxGeometry relative="1" as="geometry" />
        </mxCell>
        <mxCell id="z3WSKayu3pLSzVkKCeYQ-10" value="Личный кабинет" style="rounded=0;whiteSpace=wrap;html=1;" vertex="1" parent="1">
          <mxGeometry x="330" y="170" width="120" height="60" as="geometry" />
        </mxCell>
        <mxCell id="z3WSKayu3pLSzVkKCeYQ-16" value="" style="edgeStyle=orthogonalEdgeStyle;rounded=0;orthogonalLoop=1;jettySize=auto;html=1;" edge="1" parent="1" source="z3WSKayu3pLSzVkKCeYQ-13" target="z3WSKayu3pLSzVkKCeYQ-15">
          <mxGeometry relative="1" as="geometry" />
        </mxCell>
        <mxCell id="z3WSKayu3pLSzVkKCeYQ-13" value="Каталог" style="rounded=0;whiteSpace=wrap;html=1;" vertex="1" parent="1">
          <mxGeometry x="340" y="490" width="120" height="60" as="geometry" />
        </mxCell>
        <mxCell id="z3WSKayu3pLSzVkKCeYQ-15" value="Страница авто" style="rounded=0;whiteSpace=wrap;html=1;" vertex="1" parent="1">
          <mxGeometry x="180" y="490" width="120" height="60" as="geometry" />
        </mxCell>
        <mxCell id="z3WSKayu3pLSzVkKCeYQ-17" value="Мои бронирования" style="rounded=0;whiteSpace=wrap;html=1;" vertex="1" parent="1">
          <mxGeometry x="330" y="50" width="120" height="60" as="geometry" />
        </mxCell>
      </root>
    </mxGraphModel>
  </diagram>
</mxfile>
